<?xml version="1.0" encoding="UTF-8"?><svg id="Layer_2" xmlns="http://www.w3.org/2000/svg" viewBox="0 0 307.02 106.78"><defs><style>.cls-1{fill:#ed1b58;}.cls-2{fill:#fcb017;}.cls-3{fill:#231f20;}.cls-4{fill:#4064af;}.cls-5{fill:#6dcacc;}</style></defs><g id="Layer_1-2"><path class="cls-2" d="m10.13,53.64c-.13-4.59.77-9.28,2.85-13.72,7.12-15.27,25.27-21.87,40.54-14.75,11.36,5.3,17.92,16.7,17.6,28.48h10.11c.31-15.59-8.41-30.63-23.44-37.64C37.45,6.52,13.29,15.31,3.81,35.64,1.09,41.47-.12,47.62,0,53.64h10.12Z"/><g><path class="cls-3" d="m244.1,71.98l-11.5-28.38h9.68l6.43,17.82,6.49-17.82h9.18l-11.6,28.38h-8.69Z"/><path class="cls-3" d="m272.7,39.26c-1.36,0-2.53-.5-3.52-1.48-.99-.99-1.49-2.16-1.49-3.52s.5-2.58,1.49-3.55c.99-.97,2.16-1.46,3.52-1.46s2.58.49,3.55,1.46c.97.97,1.46,2.15,1.46,3.55s-.49,2.53-1.46,3.52c-.97.99-2.15,1.48-3.55,1.48Zm-4.46,32.73v-28.38h8.91v28.38h-8.91Z"/><path class="cls-3" d="m294.81,72.53c-2.57,0-4.97-.29-7.21-.88-2.24-.59-4.18-1.45-5.83-2.58l3.9-5.94c2.05,1.06,3.75,1.81,5.09,2.23,1.34.42,2.69.63,4.04.63,1.28,0,2.28-.21,3-.63.71-.42,1.07-.98,1.07-1.68,0-.55-.21-.99-.63-1.32-.42-.33-1.09-.57-2.01-.71l-5.45-.99c-2.75-.51-4.83-1.47-6.24-2.86-1.41-1.39-2.12-3.19-2.12-5.39,0-1.94.48-3.6,1.43-4.98.95-1.38,2.32-2.43,4.1-3.16,1.78-.73,3.9-1.1,6.35-1.1,1.98,0,3.94.28,5.88.83,1.94.55,3.83,1.36,5.67,2.42l-4.07,5.67c-1.43-.84-2.81-1.46-4.15-1.84-1.34-.38-2.67-.58-3.99-.58-1.06,0-1.9.17-2.5.5-.6.33-.91.81-.91,1.43,0,.59.21,1.03.63,1.32.42.29,1.18.53,2.28.71l5.33.99c2.82.51,4.95,1.47,6.38,2.86s2.15,3.17,2.15,5.33c0,1.83-.53,3.49-1.6,4.98-1.06,1.48-2.51,2.65-4.34,3.49-1.83.84-3.92,1.26-6.27,1.26Z"/></g><path class="cls-1" d="m123.48,40.95c1.9,4.18,2.89,8.85,2.7,13.75-.64,16.83-14.81,29.96-31.65,29.32-12.52-.48-22.99-8.45-27.27-19.43l-9.32,3.92c5.76,14.49,19.62,24.98,36.2,25.61,22.42.86,41.28-16.62,42.14-39.04.25-6.43-1.02-12.56-3.48-18.06l-9.33,3.92Z"/><path class="cls-5" d="m141.62,83.44c-4.59.14-9.28-.76-13.73-2.83-15.28-7.1-21.91-25.24-14.81-40.52,5.28-11.37,16.67-17.94,28.45-17.64v-10.11c-15.6-.29-30.63,8.45-37.62,23.49-9.45,20.34-.62,44.5,19.72,53.95,5.83,2.71,11.98,3.91,18,3.77v-10.12Z"/><path class="cls-1" d="m67.27,64.59c-1.47-3.78-2.21-7.91-2.05-12.22.64-16.83,14.81-29.96,31.65-29.32,11.93.46,22,7.71,26.62,17.89l9.33-3.92c-6.1-13.69-19.57-23.46-35.56-24.07-11.22-.43-40.59-1.55-40.59-1.55,0,0-1.06,27.7-1.55,40.59-.22,5.84.81,11.43,2.83,16.53l9.32-3.92Z"/><path class="cls-2" d="m71.11,53.64c-.11,4.05-1.03,8.15-2.85,12.06-7.12,15.27-25.27,21.87-40.54,14.75-10.82-5.05-17.29-15.64-17.6-26.81H0c.32,14.98,8.94,29.22,23.44,35.98,10.18,4.75,36.81,17.17,36.81,17.17,0,0,11.72-25.13,17.17-36.81,2.47-5.29,3.69-10.85,3.8-16.33h-10.11Z"/><path class="cls-4" d="m164.69,35.5c2.56-3.15,5.78-5.83,9.61-7.82,14.95-7.76,33.37-1.92,41.12,13.03,5.5,10.6,4.16,22.93-2.4,31.98l8.02,6.17c8.89-12.07,10.73-28.61,3.36-42.81-5.17-9.97-18.7-36.05-18.7-36.05,0,0-24.61,12.77-36.05,18.7-5.18,2.69-9.54,6.35-12.97,10.63l8.01,6.17Z"/><path class="cls-5" d="m141.53,22.46c4.05.1,8.15,1.01,12.06,2.83,15.28,7.1,21.91,25.24,14.81,40.52-5.03,10.83-15.61,17.31-26.79,17.64v10.12c15-.34,29.22-8.99,35.96-23.5,4.73-10.19,17.11-36.84,17.11-36.84,0,0-25.14-11.68-36.84-17.11-5.3-2.46-10.85-3.67-16.34-3.77v10.11Z"/><path class="cls-4" d="m213.02,72.69c-2.7,3.72-6.27,6.88-10.62,9.14-14.95,7.76-33.37,1.92-41.12-13.03-5.77-11.13-4.02-24.16,3.42-33.3l-8.01-6.17c-9.75,12.16-12.02,29.4-4.38,44.13,10.33,19.91,34.85,27.68,54.76,17.35,5.71-2.96,10.41-7.09,13.99-11.95l-8.02-6.17Z"/><path class="cls-3" d="m22.27,72.98l8.2-38.5h28.71l-1.76,7.92h-19.42l-1.59,7.59h13.58l-1.65,7.7h-13.58l-3.25,15.29h-9.24Z"/><path class="cls-3" d="m133.41,72.56l8.19-38.5h9.24l-8.19,38.5h-9.24Z"/><path class="cls-3" d="m170.37,72.11l8.19-38.5h16.94c2.42,0,4.54.48,6.35,1.43,1.81.95,3.24,2.26,4.26,3.93,1.03,1.67,1.54,3.6,1.54,5.8,0,1.94-.42,3.75-1.27,5.42-.84,1.67-2,3.11-3.46,4.32-1.47,1.21-3.15,2.11-5.06,2.7l5.55,14.9h-9.79l-4.67-14.25h-6.33l-3.03,14.25h-9.24Zm13.86-21.67h8.69c1.03,0,1.93-.21,2.72-.63.79-.42,1.41-1,1.87-1.73.46-.73.69-1.56.69-2.47,0-1.28-.39-2.3-1.18-3.05-.79-.75-1.84-1.13-3.16-1.13h-7.7l-1.93,9.02Z"/><path class="cls-3" d="m74.37,72.28l22.71-38.5h10.56l6.49,38.5h-9.57l-1.26-9.19h-13.8l-5,9.19h-10.12Zm19.14-16.5h8.75l-1.76-12.76-6.99,12.76Z"/></g></svg>